<?xml version="1.0" encoding="UTF-8" standalone="no"?><!DOCTYPE svg PUBLIC "-//W3C//DTD SVG 1.1//EN" "http://www.w3.org/Graphics/SVG/1.1/DTD/svg11.dtd"><svg width="100%" height="100%" viewBox="0 0 72 56" version="1.1" xmlns="http://www.w3.org/2000/svg" xmlns:xlink="http://www.w3.org/1999/xlink" xml:space="preserve" xmlns:serif="http://www.serif.com/" style="fill-rule:evenodd;clip-rule:evenodd;stroke-linejoin:round;stroke-miterlimit:1.41421;"><rect id="Artboard1" x="0" y="0" width="72" height="55.32" style="fill:none;"/><clipPath id="_clip1"><rect x="0" y="0" width="72" height="55.32"/></clipPath><g clip-path="url(#_clip1)"><path d="M72,3.702c0,-2.045 -1.657,-3.702 -3.702,-3.702c-12.375,0 -52.221,0 -64.596,0c-2.045,0 -3.702,1.657 -3.702,3.702c0,10.064 0,37.841 0,47.904c0,2.045 1.657,3.702 3.702,3.702c12.375,0 52.221,0 64.596,0c2.045,0 3.702,-1.657 3.702,-3.702c0,-10.063 0,-37.84 0,-47.904Z" style="fill:#117327;"/><path d="M22.135,12.759c0,-0.252 -0.1,-0.495 -0.279,-0.673c-0.179,-0.179 -0.421,-0.279 -0.674,-0.279c-1.567,0 -4.669,0 -6.236,0c-0.253,0 -0.495,0.1 -0.674,0.279c-0.178,0.178 -0.279,0.421 -0.279,0.673c0,4.672 0,25.119 0,29.79c0,0.253 0.101,0.495 0.279,0.674c0.179,0.179 0.421,0.279 0.674,0.279c1.567,0 4.669,0 6.236,0c0.253,0 0.495,-0.1 0.674,-0.279c0.179,-0.179 0.279,-0.421 0.279,-0.674c0,-4.671 0,-25.118 0,-29.79Z" style="fill:#fff;"/><path d="M45.607,12.759c0,-0.252 -0.101,-0.495 -0.279,-0.673c-0.179,-0.179 -0.421,-0.279 -0.674,-0.279c-1.567,0 -4.67,0 -6.236,0c-0.253,0 -0.495,0.1 -0.674,0.279c-0.179,0.178 -0.279,0.421 -0.279,0.673c0,4.672 0,25.119 0,29.79c0,0.253 0.1,0.495 0.279,0.674c0.179,0.179 0.421,0.279 0.674,0.279c1.566,0 4.669,0 6.236,0c0.253,0 0.495,-0.1 0.674,-0.279c0.178,-0.179 0.279,-0.421 0.279,-0.674c0,-4.671 0,-25.118 0,-29.79Z" style="fill:#fff;"/><path d="M58.007,12.759c0,-0.526 -0.427,-0.952 -0.953,-0.952c-1.567,0 -4.669,0 -6.236,0c-0.526,0 -0.953,0.426 -0.953,0.952c0,2.513 0,9.3 0,11.813c0,0.527 0.427,0.953 0.953,0.953c1.567,0 4.669,0 6.236,0c0.526,0 0.953,-0.426 0.953,-0.953c0,-2.513 0,-9.3 0,-11.813Z" style="fill:#fff;"/><path d="M33.871,12.759c0,-0.252 -0.101,-0.495 -0.279,-0.673c-0.179,-0.179 -0.421,-0.279 -0.674,-0.279c-1.567,0 -4.669,0 -6.236,0c-0.253,0 -0.495,0.1 -0.674,0.279c-0.179,0.178 -0.279,0.421 -0.279,0.673c0,1.567 0,4.669 0,6.235c0,0.253 0.1,0.495 0.279,0.674c0.179,0.179 0.421,0.279 0.674,0.279c1.567,0 4.669,0 6.236,0c0.253,0 0.495,-0.1 0.674,-0.279c0.178,-0.179 0.279,-0.421 0.279,-0.674c0,-1.566 0,-4.668 0,-6.235Z" style="fill:#fff;"/><path d="M33.871,24.537c0,-0.253 -0.101,-0.495 -0.279,-0.674c-0.179,-0.179 -0.421,-0.279 -0.674,-0.279c-1.567,0 -4.669,0 -6.236,0c-0.253,0 -0.495,0.1 -0.674,0.279c-0.179,0.179 -0.279,0.421 -0.279,0.674c0,1.566 0,4.668 0,6.235c0,0.253 0.1,0.495 0.279,0.674c0.179,0.178 0.421,0.279 0.674,0.279c1.567,0 4.669,0 6.236,0c0.253,0 0.495,-0.101 0.674,-0.279c0.178,-0.179 0.279,-0.421 0.279,-0.674c0,-1.567 0,-4.669 0,-6.235Z" style="fill:#fff;"/><path d="M58.007,30.736c0,-0.526 -0.427,-0.953 -0.953,-0.953c-1.567,0 -4.669,0 -6.236,0c-0.526,0 -0.953,0.427 -0.953,0.953c0,2.513 0,9.3 0,11.813c0,0.526 0.427,0.953 0.953,0.953c1.567,0 4.669,0 6.236,0c0.526,0 0.953,-0.427 0.953,-0.953c0,-2.513 0,-9.3 0,-11.813Z" style="fill:#fff;"/></g></svg>